.
 
http://www.scenetime.com    -  Hottest private tracker on the net. !!!

Sign up will close shortly !!  Join now 

        Seed back for speed


...................................NFO:.................................................








































          
          
              
              
                    
                    
                    
                    

Choose.2011.BRRip.Xvid.AC3-SiC

Poster:
[img]http://img62.imageshack.us/img62/3721/df20caa2722e3cb3b3c9510.jpg[/img]

IMDB Link:
http://www.imdb.com/title/tt1325723/

Description:
A journalism student tracks a killer with the help of her detective 
father and a therapist.

MediaInfo:
General
Complete name                    : Choose.2011.BRRip.Xvid.AC3-SiC.avi
Format                           : AVI
Format/Info                      : Audio Video Interleave
File size                        : 1.10 GiB
Duration                         : 1h 26mn
Overall bit rate                 : 1 819 Kbps

Video
ID                               : 0
Format                           : MPEG-4 Visual
Format profile                   : Advanced Simple@L5
Format settings, BVOP            : Yes
Format settings, QPel            : No
Format settings, GMC             : No warppoints
Format settings, Matrix          : Default (H.263)
Muxing mode                      : Packed bitstream
Codec ID                         : XVID
Codec ID/Hint                    : XviD
Duration                         : 1h 26mn
Bit rate                         : 1 427 Kbps
Width                            : 720 pixels
Height                           : 304 pixels
Display aspect ratio             : 2.35:1
Frame rate                       : 23.976 fps
Resolution                       : 8 bits
Colorimetry                      : 4:2:0
Scan type                        : Progressive
Bits/(Pixel*Frame)               : 0.272
Stream size                      : 882 MiB (78%)
Writing library                  : XviD 64

Audio
ID                               : 1
Format                           : AC-3
Format/Info                      : Audio Coding 3
Format_Settings_ModeExtension    : CM (complete main)
Codec ID                         : 2000
Duration                         : 1h 26mn
Bit rate mode                    : Constant
Bit rate                         : 384 Kbps
Channel(s)                       : 6 channels
Channel positions                : Front: L C R, Side: L R, LFE
Sampling rate                    : 48.0 KHz
Stream size                      : 237 MiB (21%)
Alignment                        : Aligned on interleaves
Interleave, duration             : 64 ms (1.53 video frames)
Interleave, preload duration     : 192 ms
Title                            : 6ch English

Screenshots:
[img]http://img833.imageshack.us/img833/4836/vlcsnap2011082321h19m58.png[/img]
[img]http://img193.imageshack.us/img193/3066/choose2011brripxvidac3s.png[/img]
[img]http://img17.imageshack.us/img17/3066/choose2011brripxvidac3s.png[/img]
[img]http://img98.imageshack.us/img98/3066/choose2011brripxvidac3s.png[/img]
[img]http://img835.imageshack.us/img835/3066/choose2011brripxvidac3s.png[/img]

Note :   N/A 

Source : BluRay-DNL Thanks!!!

Encoder: Bezauk

Enjoy!

Respects to CaptainHomey, Cyanide, CM8, Rx, THC, ELEKTRI4KA, 
Killerhz, PA, YeFsTe, BoxSlots, MrRep and everyone in the struggle...